HIERARCHY
ROOT ui
{
	 OFFSET 0 0 0
	 CHANNELS 3 XPosition YPosition Z Position
	 EndSite
	 {
	 OFFSET 0 -1 0
	 }
}
ROOT li
{
	 OFFSET 0 0 0
	 CHANNELS 3 XPosition YPosition Z Position
	 EndSite
	 {
	 OFFSET 0 -1 0
	 }
}
ROOT ul
{
	 OFFSET 0 0 0
	 CHANNELS 3 XPosition YPosition Z Position
	 EndSite
	 {
	 OFFSET 0 -1 0
	 }
}
ROOT ll
{
	 OFFSET 0 0 0
	 CHANNELS 3 XPosition YPosition Z Position
	 EndSite
	 {
	 OFFSET 0 -1 0
	 }
}
ROOT tt
{
	 OFFSET 0 0 0
	 CHANNELS 3 XPosition YPosition Z Position
	 EndSite
	 {
	 OFFSET 0 -1 0
	 }
}
ROOT tb
{
	 OFFSET 0 0 0
	 CHANNELS 3 XPosition YPosition Z Position
	 EndSite
	 {
	 OFFSET 0 -1 0
	 }
}
ROOT td
{
	 OFFSET 0 0 0
	 CHANNELS 3 XPosition YPosition Z Position
	 EndSite
	 {
	 OFFSET 0 -1 0
	 }
}
ROOT v
{
	 OFFSET 0 0 0
	 CHANNELS 3 XPosition YPosition Z Position
	 EndSite
	 {
	 OFFSET 0 -1 0
	 }
}
ROOT bn
{
	 OFFSET 0 0 0
	 CHANNELS 3 XPosition YPosition Z Position
	 EndSite
	 {
	 OFFSET 0 -1 0
	 }
}
MOTION
Frames: 16
Frame Time: 0.002
-4.0738698840141294E-4	-1.1552199721336365E-4	0		0.48209078979492187	-2.3820205078125	0		-1.147816650390625	-0.017023368835449217	0		-0.8058185424804688	-2.30270068359375	0		1.851328125	-0.4753758544921875	0		3.331828125	-0.20168881225585938	0		4.55319970703125	-0.06093192672729492	0		5.57050830078125	0.17455291748046875	0		-0.31615145874023437	5.85259130859375	0		
-0.008967915534973144	5.583739876747131E-4	0		0.47298068237304686	-2.3742626953125	0		-1.0734161376953124	-0.019810462951660158	0		-0.7789912719726563	-2.298689453125	0		1.874863037109375	-0.4729372253417969	0		3.346481201171875	-0.18889884948730468	0		4.55850537109375	-0.06882393646240234	0		5.57795654296875	0.17482814025878907	0		-0.4498783264160156	5.83316064453125	0		
-0.0036175739765167236	-0.0039983329772949215	0		0.4836119689941406	-2.38282666015625	0		-1.1588043212890624	-0.007114181041717529	0		-0.8043201293945312	-2.30387744140625	0		1.8605009765625	-0.4629134826660156	0		3.3558740234375	-0.19203230285644532	0		4.56202099609375	-0.06269028472900391	0		5.57530322265625	0.15817904663085938	0		-0.31699984741210935	5.85155517578125	0		
-0.006279300212860108	-0.008441837310791015	0		0.48435382080078127	-2.38324658203125	0		-1.14657470703125	-0.018953296661376955	0		-0.792713623046875	-2.312650634765625	0		1.858889892578125	-0.468103759765625	0		3.348638671875	-0.16991835021972657	0		4.56652001953125	-0.056584808349609376	0		5.585666015625	0.1704320831298828	0		-0.43759844970703127	5.84186181640625	0		
-6.694549918174744E-4	0.0059808030128479005	0		0.4621819763183594	-2.376327880859375	0		-1.138070068359375	-0.011737088203430175	0		-0.795791259765625	-2.29920263671875	0		1.9072559814453125	-0.4740678100585938	0		3.354769775390625	-0.188031494140625	0		4.57000048828125	-0.050482479095458985	0		5.585953125	0.17091423034667969	0		-0.30374166870117186	5.86026220703125	0		
0.0015707060098648072	-0.002554140090942383	0		0.4877939147949219	-2.3821455078125	0		-1.1576593017578125	-0.009099176406860351	0		-0.8001715087890625	-2.303742431640625	0		1.8710185546875	-0.4517552490234375	0		3.3693515625	-0.17528582763671874	0		4.56727880859375	-0.05631074905395508	0		5.583298828125	0.15934620666503907	0		-0.3183388061523437	5.8499267578125	0		
-0.004013298988342285	0.002025093078613281	0		0.45059033203125	-2.373024169921875	0		-1.1573177490234374	-0.009763445854187012	0		-0.809403564453125	-2.296210693359375	0		1.929367919921875	-0.45588113403320313	0		3.359596923828125	-0.18319656372070312	0		4.5566279296875	-0.05604778289794922	0		5.579384765625	0.1771807556152344	0		-0.33391082763671875	5.84059912109375	0		
-0.01168012523651123	0.0026309480667114256	0		0.47716201782226564	-2.37686328125	0		-1.1510733642578126	-0.01551047420501709	0		-0.8108237915039063	-2.29879541015625	0		1.89077734375	-0.4535712890625	0		3.354056884765625	-0.17519418334960937	0		4.561041015625	-0.050041240692138673	0		5.576666015625	0.16030162048339844	0		-0.44033749389648436	5.84061328125	0		
-0.0034010419845581057	0.0010004689693450927	0		0.46165386962890625	-2.383082763671875	0		-1.144865234375	-0.022246850967407226	0		-0.7874628295898437	-2.313739990234375	0		1.9362095947265625	-0.44851889038085935	0		3.370062744140625	-0.19653880310058594	0		4.55931298828125	-0.05197983932495117	0		5.57269482421875	0.17453526306152345	0		-0.43876821899414065	5.83802001953125	0		
0.005842103958129883	-0.0016407190561294556	0		0.4952894287109375	-2.377023193359375	0		-1.132430419921875	-0.0120594482421875	0		-0.7907144775390625	-2.2992802734375	0		1.904681640625	-0.43834939575195314	0		3.381910400390625	-0.15884002685546875	0		4.573677734375	-0.046189765930175784	0		5.5800234375	0.17271774291992187	0		-0.4401262817382813	5.83847607421875	0		
-0.003758225917816162	0.007996831893920898	0		0.45892010498046876	-2.36794482421875	0		-1.146202880859375	-0.014479050636291504	0		-0.8051808471679688	-2.296651123046875	0		1.9399041748046875	-0.4441672668457031	0		3.35887890625	-0.17966632080078124	0		4.56496630859375	-0.04409924697875976	0		5.5760400390625	0.19025733947753906	0		-0.3222931823730469	5.8492158203125	0		
0.0032897789478302003	-0.005605146884918213	0		0.4792334594726563	-2.3786904296875	0		-1.1559354248046876	-0.012945770263671875	0		-0.8067569580078126	-2.2992001953125	0		1.9342691650390624	-0.4384014587402344	0		3.384230224609375	-0.1732126007080078	0		4.56520654296875	-0.04417201614379883	0		5.5668857421875	0.18022317504882812	0		-0.3216217956542969	5.8476689453125	0		
-0.005473712921142578	-0.004973667144775391	0		0.47966009521484376	-2.379146240234375	0		-1.1557135009765624	-0.013543049812316894	0		-0.772412109375	-2.30525244140625	0		1.9345279541015625	-0.43873138427734376	0		3.3753525390625	-0.1812876892089844	0		4.5603173828125	-0.052202068328857425	0		5.567052734375	0.18017979431152345	0		-0.337033935546875	5.83835888671875	0		
-0.007137660026550293	0.0035623419284820557	0		0.4919695129394531	-2.38576904296875	0		-1.1396058349609375	-0.0213521671295166	0		-0.8320159912109375	-2.304952392578125	0		1.9437408447265625	-0.4411969909667969	0		3.378801513671875	-0.16555586242675782	0		4.5636142578125	-0.046375450134277345	0		5.5735966796875	0.1746668701171875	0		-0.4905144348144531	5.8230166015625	0		
0.0020303640365600586	9.515349864959717E-4	0		0.49639508056640624	-2.38227392578125	0		-1.147208251953125	-0.007805921077728271	0		-0.790642333984375	-2.3050751953125	0		1.94823828125	-0.42259860229492185	0		3.382939697265625	-0.17085163879394533	0		4.57788427734375	-0.04172816848754883	0		5.5808671875	0.17253819274902343	0		-0.4425153503417969	5.83781787109375	0		
0.022275434494018555	0.0041959090232849125	0		0.49471493530273436	-2.384686767578125	0		-1.147016845703125	-0.008355512619018554	0		-0.8011719360351562	-2.296447265625	0		1.9484569091796875	-0.42294424438476563	0		3.423236328125	-0.16466615295410156	0		4.5750078125	-0.046857826232910155	0		5.58396337890625	0.18954348754882813	0		-0.32356622314453126	5.8466396484375	0		
